#!OML:ASF X:\für Bonn\!DataBase\2005_08_10_Bjorn_Final\c3d\bjorn.ASF
:FULLY-SPECIFIED
:DEGREES
446
root 11.1667 19.1006 0.607547 61.6865 -92.7801 -55.6725
lowerback 1.11909 1.60674 -1.54399
upperback 5.3857 2.1176 -1.82655
thorax 4.94671 0.9764 -0.96209
lowerneck -7.22701 -2.49287 4.64959
upperneck -1.77536 -3.73554 -4.68944
head 0.495203 -1.9811 -2.37861
rclavicle 2.70844e-014 -1.66979e-014
rhumerus -24.7399 -14.4795 -84.5545
rradius 22.7511
rwrist 6.30053
rhand -12.9613 10.1724
rfingers 7.12502
rthumb 13.1305 -19.3942
lclavicle 2.70844e-014 -1.66979e-014
lhumerus -32.9774 -14.6331 94.1934
lradius 47.1311
lwrist -19.9003
lhand -24.6123 -13.2588
lfingers 7.12502
lthumb 1.88597 16.7127
rfemur -6.51786 -8.89383 11.8031
rtibia 25.2109
rfoot -16.4631 23.2221
rtoes 2.37847
lfemur -18.1137 5.94929 -19.9174
ltibia 33.7983
lfoot -17.0837 -2.62612
ltoes -12.1562
447
root 11.1121 19.0857 0.638567 62.76 -92.8024 -56.8522
lowerback 1.11975 1.61999 -1.83458
upperback 5.48636 2.13879 -1.8525
thorax 5.04322 0.971525 -0.825397
lowerneck -7.19046 -2.59514 4.47442
upperneck -1.77008 -3.85675 -4.45737
head 0.490948 -2.03711 -2.27161
rclavicle 1.39149e-015 -1.17283e-014
rhumerus -25.1245 -14.8299 -84.3394
rradius 22.7693
rwrist 6.22542
rhand -13.1781 10.1154
rfingers 7.12502
rthumb 12.9215 -19.4645
lclavicle 1.39149e-015 -1.17283e-014
lhumerus -33.178 -14.3286 94.2039
lradius 47.1016
lwrist -20.0124
lhand -24.5716 -13.137
lfingers 7.12502
lthumb 1.92527 16.8341
rfemur -6.26855 -8.28622 11.6885
rtibia 25.3622
rfoot -17.0762 22.5097
rtoes 1.54572
lfemur -17.7798 5.91399 -20.0532
ltibia 33.7688
lfoot -17.2113 -2.64968
ltoes -12.5729
448
root 11.057 19.0726 0.670111 63.9811 -92.8222 -58.1806
lowerback 1.11771 1.60939 -2.14219
upperback 5.60046 2.12821 -1.86457
thorax 5.15445 0.948863 -0.665819
lowerneck -7.19966 -2.68473 4.29446
upperneck -1.74399 -3.96216 -4.24388
head 0.502191 -2.08606 -2.17153
rclavicle -2.78299e-015 9.93923e-015
rhumerus -25.4952 -14.9809 -84.1562
rradius 22.8336
rwrist 6.03904
rhand -13.3884 9.99732
rfingers 7.12502
rthumb 12.7188 -19.5953
lclavicle -2.78299e-015 9.93923e-015
lhumerus -33.3035 -14.0394 94.2099
lradius 47.0201
lwrist -20.0832
lhand -24.5636 -12.9882
lfingers 7.12502
lthumb 1.93308 16.9828
rfemur -6.03562 -7.69858 11.5797
rtibia 25.5552
rfoot -17.6261 21.7844
rtoes 0.876912
lfemur -17.4432 5.84757 -20.1865
ltibia 33.7336
lfoot -17.321 -2.69257
ltoes -13.0322
449
root 11.0016 19.0585 0.700597 65.0128 -92.8236 -59.338
lowerback 1.13809 1.59348 -2.45948
upperback 5.71591 2.10928 -1.85511
thorax 5.25365 0.920515 -0.479555
lowerneck -7.22147 -2.76117 4.10646
upperneck -1.72225 -4.05024 -4.04118
head 0.515359 -2.1267 -2.07398
rclavicle -1.0635e-014 -6.16232e-015
rhumerus -25.8587 -15.1373 -83.9431
rradius 22.8734
rwrist 5.88723
rhand -13.5683 9.83444
rfingers 7.12502
rthumb 12.5453 -19.7689
lclavicle -1.0635e-014 -6.16232e-015
lhumerus -33.415 -13.7797 94.2406
lradius 46.9243
lwrist -20.0755
lhand -24.4783 -12.8841
lfingers 7.12502
lthumb 2.01546 17.0862
rfemur -5.81589 -7.15218 11.4996
rtibia 25.8075
rfoot -18.055 21.0826
rtoes 0.339575
lfemur -17.0818 5.80675 -20.2959
ltibia 33.6899
lfoot -17.3928 -2.74991
ltoes -13.3364
450
root 10.9452 19.0478 0.731864 66.1122 -92.8058 -60.5757
lowerback 1.17113 1.56769 -2.7623
upperback 5.83271 2.07644 -1.84981
thorax 5.3485 0.88541 -0.306599
lowerneck -7.22665 -2.8276 3.92837
upperneck -1.69547 -4.12464 -3.79509
head 0.528755 -2.15954 -1.96398
rclavicle 2.23633e-014 -2.32578e-014
rhumerus -26.235 -15.2369 -83.7585
rradius 22.9231
rwrist 5.73009
rhand -13.7352 9.65433
rfingers 7.12502
rthumb 12.3845 -19.9588
lclavicle 2.23633e-014 -2.32578e-014
lhumerus -33.5198 -13.5128 94.243
lradius 46.8395
lwrist -20.1185
lhand -24.3561 -12.7865
lfingers 7.12502
lthumb 2.13342 17.1826
rfemur -5.61459 -6.62379 11.4454
rtibia 26.1274
rfoot -18.3686 20.3987
rtoes 0.0561987
lfemur -16.6932 5.70901 -20.3812
ltibia 33.6326
lfoot -17.4635 -2.77288
ltoes -13.5235
451
root 10.889 19.0376 0.762992 66.8374 -92.7962 -61.4293
lowerback 1.21116 1.54686 -3.04866
upperback 5.9401 2.05052 -1.87753
thorax 5.43183 0.854992 -0.17718
lowerneck -7.25258 -2.88467 3.89319
upperneck -1.65473 -4.1979 -3.643
head 0.546242 -2.19382 -1.91113
rclavicle -6.16232e-015 -1.31198e-014
rhumerus -26.6243 -15.5485 -83.5792
rradius 22.9447
rwrist 5.80149
rhand -13.8305 9.5038
rfingers 7.12502
rthumb 12.2925 -20.1149
lclavicle -6.16232e-015 -1.31198e-014
lhumerus -33.6175 -13.3149 94.2074
lradius 46.745
lwrist -20.108
lhand -24.234 -12.7485
lfingers 7.12502
lthumb 2.25135 17.2194
rfemur -5.48204 -6.18027 11.3942
rtibia 26.5273
rfoot -18.5684 19.7638
rtoes -0.302383
lfemur -16.3143 5.66247 -20.4669
ltibia 33.5622
lfoot -17.539 -2.81062
ltoes -13.8311
452
root 10.8325 19.0276 0.793993 67.7072 -92.7823 -62.4367
lowerback 1.27222 1.52601 -3.32301
upperback 6.03787 2.02374 -1.92899
thorax 5.49484 0.825223 -0.0798176
lowerneck -7.25884 -2.9417 3.93764
upperneck -1.60544 -4.27608 -3.49488
head 0.561469 -2.23044 -1.87357
rclavicle 1.54058e-014 -9.93923e-015
rhumerus -27.0531 -16.0335 -83.3977
rradius 22.9454
rwrist 6.02474
rhand -13.9284 9.40941
rfingers 7.12502
rthumb 12.1982 -20.2149
lclavicle 1.54058e-014 -9.93923e-015
lhumerus -33.7473 -13.1942 94.1477
lradius 46.7157
lwrist -20.0921
lhand -24.1192 -12.6739
lfingers 7.12502
lthumb 2.36225 17.2928
rfemur -5.38403 -5.75238 11.3508
rtibia 27.0267
rfoot -18.8011 19.1243
rtoes -0.738841
lfemur -15.9067 5.58464 -20.5492
ltibia 33.473
lfoot -17.5965 -2.84114
ltoes -13.9248
453
root 10.7754 19.0194 0.825152 68.6926 -92.8065 -63.5423
lowerback 1.34151 1.51186 -3.60059
upperback 6.11576 2.00662 -2.03313
thorax 5.53425 0.801618 -0.0354494
lowerneck -7.21933 -2.99052 4.07503
upperneck -1.59215 -4.34976 -3.34452
head 0.556082 -2.26484 -1.84989
rclavicle 3.47873e-015 -1.78906e-014
rhumerus -27.5165 -16.5933 -83.2633
rradius 22.9555
rwrist 6.28985
rhand -14.0193 9.34277
rfingers 7.12502
rthumb 12.1105 -20.2867
lclavicle 3.47873e-015 -1.78906e-014
lhumerus -33.9481 -13.1841 94.0411
lradius 46.7935
lwrist -20.048
lhand -24.0243 -12.6471
lfingers 7.12502
lthumb 2.45387 17.3185
rfemur -5.38773 -5.44353 11.2608
rtibia 27.6631
rfoot -19.0139 18.5757
rtoes -1.28081
lfemur -15.5088 5.48457 -20.6771
ltibia 33.3624
lfoot -17.6393 -2.84688
ltoes -13.9058
454
root 10.7182 19.0111 0.855089 69.5431 -92.8158 -64.5123
lowerback 1.41294 1.50102 -3.86715
upperback 6.19997 1.9929 -2.12533
thorax 5.57926 0.779462 0.0151018
lowerneck -7.22192 -3.03321 4.18501
upperneck -1.53806 -4.41385 -3.19771
head 0.571621 -2.29446 -1.82412
rclavicle 9.54166e-015 3.57812e-015
rhumerus -27.9727 -17.1109 -83.1277
rradius 22.965
rwrist 6.50784
rhand -14.0786 9.29788
rfingers 7.12502
rthumb 12.0533 -20.335
lclavicle 9.54166e-015 3.57812e-015
lhumerus -34.1226 -13.1886 93.9517
lradius 46.8707
lwrist -20.0344
lhand -24.012 -12.6526
lfingers 7.12502
lthumb 2.46579 17.3129
rfemur -5.48297 -5.11837 11.2088
rtibia 28.4648
rfoot -19.2525 17.9589
rtoes -2.13119
lfemur -15.0936 5.40954 -20.7761
ltibia 33.2216
lfoot -17.6867 -2.93179
ltoes -13.4614
